<svg width="125" height="124" viewBox="0 0 125 124" fill="none" xmlns="http://www.w3.org/2000/svg">
<path fill-rule="evenodd" clip-rule="evenodd" d="M40.7547 110.883C42.3452 110.883 43.5075 111.22 44.2416 111.894C44.9756 112.568 45.3431 113.615 45.3439 115.037V122.658H42.9582V115.36C42.9582 113.753 42.0571 112.949 40.255 112.949C39.4765 112.943 38.7123 113.158 38.0515 113.569C38.1658 114.05 38.2195 114.543 38.2114 115.037V122.658H35.8257V115.36C35.8257 113.753 34.9246 112.949 33.1225 112.949C32.3002 112.95 31.4846 113.098 30.7144 113.386V122.658H28.3299V112.077C29.1193 111.685 29.955 111.393 30.8173 111.209C31.7371 110.995 32.6778 110.884 33.6222 110.877C35.1102 110.877 36.2159 111.166 36.9392 111.745C38.1305 111.176 39.4344 110.881 40.7547 110.883ZM53.518 123.008C51.6993 123.008 50.3324 122.488 49.4173 121.447C48.5022 120.406 48.0442 118.891 48.0434 116.902C48.0434 112.877 49.8621 110.865 53.4994 110.866C55.3321 110.866 56.7102 111.382 57.6336 112.415C58.5569 113.447 59.019 114.943 59.0199 116.902C59.0199 118.86 58.5429 120.367 57.5889 121.423C56.6349 122.48 55.278 123.008 53.518 123.008ZM53.4944 120.965C55.5851 120.965 56.63 119.61 56.6292 116.902C56.6292 115.556 56.3812 114.55 55.8852 113.884C55.3892 113.219 54.5939 112.885 53.4994 112.885C52.3941 112.885 51.603 113.225 51.126 113.906C50.649 114.588 50.4106 115.586 50.4106 116.902C50.4106 118.217 50.6565 119.224 51.1484 119.92C51.6402 120.617 52.4222 120.964 53.4944 120.96V120.965ZM66.9844 110.888C68.6807 110.888 69.9678 111.401 70.8458 112.426C71.7237 113.451 72.1639 114.903 72.1664 116.782C72.1664 119.047 71.6402 120.65 70.5878 121.591C69.5355 122.531 68.1979 123.004 66.5752 123.008C63.319 123.008 61.6908 122.136 61.6908 120.392V106.522H64.0543V111.6C64.5295 111.373 65.0286 111.199 65.5423 111.083C66.0139 110.962 66.4977 110.895 66.9844 110.883V110.888ZM66.3929 120.919C67.6329 120.919 68.5009 120.559 68.9969 119.84C69.4929 119.121 69.7409 118.134 69.7409 116.879C69.7409 115.594 69.4797 114.615 68.9572 113.941C68.4348 113.267 67.659 112.931 66.6298 112.932C66.1814 112.935 65.735 112.992 65.3005 113.103C64.8655 113.208 64.4479 113.375 64.0605 113.599V119.799C64.0563 120.543 64.8338 120.914 66.3929 120.914V120.919ZM74.8621 107.124H77.4066V109.305H74.8621V107.124ZM74.9303 111.209H77.3161L77.3384 122.663H74.9303V111.209ZM80.6963 122.663V106.775H83.0597V122.658L80.6963 122.663ZM91.0516 110.856C92.8239 110.856 94.1226 111.435 94.9476 112.592C95.7726 113.749 96.1777 115.368 96.1628 117.447H88.1624C88.2392 118.579 88.5699 119.44 89.1544 120.03C89.7388 120.619 90.568 120.913 91.6418 120.912C92.9283 120.914 94.1942 120.59 95.3221 119.971V122.221C94.1408 122.746 92.7876 123.008 91.2624 123.008C89.5512 123.008 88.207 122.484 87.2299 121.436C86.2528 120.387 85.7646 118.899 85.7654 116.972C85.7654 114.998 86.2271 113.487 87.1505 112.439C88.0739 111.392 89.3742 110.864 91.0516 110.856ZM90.9834 112.84C90.1807 112.84 89.5524 113.055 89.0986 113.484C88.6447 113.913 88.3492 114.639 88.212 115.663H93.7324C93.6258 114.684 93.353 113.969 92.914 113.518C92.4751 113.068 91.8315 112.842 90.9834 112.84ZM68.1984 18.4091C65.5671 17.7585 63.5417 17.4328 62.1224 17.4319C51.534 17.4319 42.9495 25.9879 42.9495 36.5391C42.9495 47.0903 51.5377 55.6475 62.1224 55.6475C72.707 55.6475 81.2965 47.0915 81.2965 36.5391C81.2972 34.9976 81.1115 33.4617 80.7434 31.9647L95.9867 27.8591C97.2215 32.5534 97.455 37.455 96.6721 42.2454C95.8891 47.0358 94.1073 51.608 91.4422 55.6649L66.2007 102.461H42.8168L59.4328 71.8332C59.5233 71.6646 59.2567 71.2926 59.0335 71.2728C41.278 69.6608 27.3701 54.7807 27.3701 36.6656C27.3701 17.4716 42.9817 1.91335 62.2414 1.91335C65.767 1.90947 69.2729 2.43917 72.64 3.48443L68.1984 18.4091Z" fill="#006E53"/>
<path d="M62.007 47.048C67.811 47.048 72.516 42.343 72.516 36.539C72.516 30.7351 67.811 26.03 62.007 26.03C56.2031 26.03 51.498 30.7351 51.498 36.539C51.498 42.343 56.2031 47.048 62.007 47.048Z" fill="#D6E806"/>
<path d="M93.2971 24.3585C90.0219 16.0254 83.5813 9.32763 75.3828 5.72876M80.1593 29.3743C78.3387 24.8168 74.8296 21.1376 70.3633 19.1034L80.1593 29.3743ZM86.8478 26.5074C84.2765 20.1865 79.4147 15.0687 73.2339 12.1768L86.8478 26.5074Z" stroke="#D6E806" stroke-width="2" stroke-linecap="round"/>
</svg>
