<svg class="carrier-logo" id="placeholder-logo" viewBox="0 0 125 125" fill="none" xmlns="http://www.w3.org/2000/svg">
    <path d="m114.619 87.667-16.172-37.82c-2.945-6.924-7.337-10.85-12.348-11.108-4.96-.259-9.765 3.203-13.434 9.816L62.85 66.174c-2.067 3.72-5.012 5.941-8.215 6.2-3.255.31-6.51-1.395-9.145-4.754l-1.137-1.447c-3.668-4.598-8.215-6.82-12.865-6.355-4.65.465-8.628 3.669-11.263 8.887L11.285 86.53c-3.203 6.459-2.893 13.95.879 20.047 3.771 6.096 10.333 9.765 17.515 9.765h65.926a20.603 20.603 0 0 0 17.205-9.249c3.927-5.786 4.547-13.071 1.809-19.426ZM36.86 44.06c9.645 0 17.464-7.818 17.464-17.463 0-9.645-7.819-17.464-17.464-17.464-9.644 0-17.463 7.82-17.463 17.464 0 9.645 7.819 17.463 17.463 17.463Z" fill="#9DB7F8" />
</svg>