<svg width="125" height="124" viewBox="0 0 125 124" fill="none" xmlns="http://www.w3.org/2000/svg">
<g clip-path="url(#clip0_1_233)">
<path d="M0.245117 0H124.248V123.999H0.245117V0Z" fill="#FFC325"/>
<path d="M2.13086 61.9999C2.13086 49.0493 29.0457 38.5496 62.2468 38.5496C95.4478 38.5496 122.363 49.0518 122.363 62.0012C122.363 74.9506 95.4491 85.4478 62.2468 85.4478C29.0445 85.4478 2.13086 74.9493 2.13086 61.9999Z" fill="#006891"/>
<path d="M2.13086 61.9999C2.13086 49.0493 29.0457 38.5496 62.2468 38.5496C95.4478 38.5496 122.363 49.0518 122.363 62.0012C122.363 74.9506 95.4491 85.4478 62.2468 85.4478C29.0445 85.4478 2.13086 74.9493 2.13086 61.9999V61.9999Z" stroke="#006891" stroke-width="1.43379" stroke-miterlimit="3.8636"/>
<path fill-rule="evenodd" clip-rule="evenodd" d="M24.1631 73.3981L30.4024 50.1072H40.2505V63.8057H40.315L46.996 50.1072H56.9997L50.7604 73.3981H44.2578L48.2575 58.4584H48.193L40.2505 73.3981H35.0437V58.4584H34.9374L30.9377 73.3981H24.1631Z" fill="white"/>
<path fill-rule="evenodd" clip-rule="evenodd" d="M58.7598 73.8587L59.6455 70.5486H66.8225L65.9355 73.8587H58.7598Z" fill="#EE4034"/>
<path fill-rule="evenodd" clip-rule="evenodd" d="M59.8938 69.6186L63.524 56.077H57L58.6006 50.1072H78.8244L77.2251 56.077H70.701L67.072 69.6148L59.8938 69.6186Z" fill="#FFC325"/>
<path fill-rule="evenodd" clip-rule="evenodd" d="M74.1875 73.3981L80.4231 50.1072H87.471L90.6507 62.5694H90.7127L94.0507 50.1072H100.566L94.329 73.3981H87.6241L84.171 60.6778H84.109L80.7027 73.3981H74.1875Z" fill="white"/>
</g>
<defs>
<clipPath id="clip0_1_233">
<rect width="124" height="124" fill="white" transform="translate(0.246094)"/>
</clipPath>
</defs>
</svg>
