<svg width="125" height="124" viewBox="0 0 125 124" fill="none" xmlns="http://www.w3.org/2000/svg">
<path d="M76.8666 1.52026C80.971 1.5773 84.8869 2.35602 88.5437 4.21602C91.7677 5.86646 94.3965 8.1741 96.1907 11.3547C97.3568 13.4544 98.1217 15.7528 98.4463 18.1325C99.1134 22.7007 98.4389 27.1201 96.9323 31.4415C96.0469 33.976 94.8218 36.3531 93.495 38.688C90.7918 43.4409 87.3185 47.5602 83.2786 51.212C78.0955 55.9017 72.4118 60.0065 66.3303 63.4521C63.9743 64.7826 61.5315 65.8998 58.9039 66.5831C57.2943 67.0178 55.6322 67.2281 53.965 67.208C51.7702 67.1634 50.0528 66.1639 48.7173 64.48C47.4841 62.9687 46.8487 61.0572 46.9317 59.1083C46.9462 58.5662 47.0245 58.0276 47.1648 57.5038C47.9597 54.6803 49.0397 51.9759 50.6542 49.5095C51.888 47.6259 53.3586 45.9532 55.2819 44.7566C57.4209 43.4248 59.7459 42.8557 62.2606 43.405C63.0468 43.5893 63.7867 43.9333 64.4343 44.4156C66.0897 45.5985 66.0029 47.4548 65.2081 48.6403C64.5272 49.6704 63.7659 50.6452 62.9314 51.5555C61.5178 53.0782 60.0162 54.5179 58.5505 55.991C57.2535 57.2942 56.0346 58.6619 55.0463 60.2206C54.5342 61.0291 54.0617 61.8537 53.9204 62.8246C53.7418 64.0423 54.3742 64.8719 55.6031 64.9859C56.2389 65.0378 56.8788 64.9735 57.4916 64.7962C59.3801 64.2742 61.1334 63.4322 62.8558 62.5245C65.5119 61.1196 67.9634 59.4022 70.3528 57.5906C73.2495 55.3945 76.0655 53.1043 78.6609 50.5573C81.617 47.6594 84.252 44.5098 86.2682 40.8754C87.7414 38.2218 88.8264 35.4194 89.3087 32.4136C89.7353 29.7662 89.4972 27.187 88.2709 24.7566C87.6803 23.5553 86.7565 22.5493 85.6098 21.8587C85.0803 21.54 84.4963 21.3222 83.8875 21.2164C81.6716 20.8233 79.5276 21.1457 77.4208 21.8488C75.2248 22.5829 73.1875 23.6543 71.2072 24.8248C66.9094 27.3743 62.6066 29.9225 58.5108 32.7931C56.4574 34.2315 54.4672 35.7616 52.4547 37.2571C50.6368 38.6087 48.8314 39.9764 46.8449 41.0812C45.2329 41.9992 43.4881 42.6614 41.6729 43.0441C39.4235 43.5005 37.3502 43.0764 35.4456 41.8537C33.469 40.5852 32.0852 38.8443 31.4776 36.5403C31.0907 35.0858 31.2432 33.6437 31.5768 32.2078C32.0641 30.0998 32.9892 28.1902 34.1424 26.3798C36.9944 21.9083 40.5804 18.1152 44.7506 14.8726C50.9307 10.0676 57.7309 6.36742 65.0866 3.69026C68.8631 2.30887 72.8457 1.57522 76.8666 1.52026Z" fill="#E20010"/>
<path d="M26.0212 103.751C26.0001 102.347 25.8401 101.085 25.0292 99.99C24.6343 99.4609 24.0875 99.0647 23.4618 98.8541C21.8498 98.2763 20.2081 98.3445 18.6072 98.8392C17.3238 99.236 16.0863 99.7767 14.8302 100.259C14.5822 100.351 14.3565 100.469 14.0564 100.603C13.4649 99.1356 12.8834 97.7121 12.2745 96.2241C13.1562 95.8062 13.987 95.3796 14.8438 95.0138C16.8179 94.1694 18.8651 93.5903 21.0178 93.4601C23.1704 93.3299 25.2945 93.444 27.2537 94.4881C29.4696 95.6611 31.0692 97.355 31.7388 99.8201C31.8354 100.143 31.8933 100.476 31.9112 100.812C31.9967 104.013 32.1121 107.213 32.1257 110.413C32.1344 112.601 31.9905 114.789 31.9261 116.978C31.9145 117.278 31.7896 117.563 31.5764 117.774C30.045 119.46 28.1713 120.626 26.0485 121.408C23.772 122.239 21.3478 122.587 18.9296 122.431C16.6976 122.307 14.7707 121.394 13.1413 119.877C11.5119 118.361 10.3736 116.529 10.0562 114.285C9.62218 111.211 10.5088 108.543 12.7185 106.349C14.1395 104.938 15.8904 104.208 17.8632 103.951C20.0456 103.667 22.2355 103.742 24.4253 103.748L26.0212 103.751ZM25.7347 108.748C25.6061 108.723 25.4761 108.705 25.3454 108.695C24.6014 108.68 23.8487 108.654 23.101 108.665C22.2045 108.679 21.3042 108.682 20.4127 108.767C19.4913 108.855 18.5973 109.124 17.8831 109.739C16.6976 110.761 16.3455 112.095 16.6344 113.599C16.994 115.459 18.0331 116.758 19.8857 117.312C20.8409 117.597 21.8523 117.64 22.8282 117.436C23.7352 117.27 24.5813 116.864 25.2784 116.26C25.3964 116.168 25.4935 116.053 25.563 115.921C25.6325 115.788 25.6729 115.643 25.6814 115.494C25.7099 114.84 25.7943 114.188 25.7992 113.534C25.8091 112.038 25.7868 110.541 25.7744 109.044C25.767 108.945 25.7537 108.846 25.7347 108.748Z" fill="#E20010"/>
<path d="M100.604 108.624C95.284 108.624 90.0637 108.51 84.7701 108.649C84.7974 109.021 84.8135 109.373 84.847 109.717C84.9834 111.121 85.2859 112.487 85.8799 113.775C86.3417 114.826 87.0586 115.745 87.9656 116.448C89.404 117.541 91.0457 117.719 92.7681 117.498C94.1916 117.314 95.5172 116.793 96.839 116.269C97.4454 116.029 98.0468 115.773 98.699 115.506C99.319 116.803 99.9266 118.078 100.559 119.39C100.442 119.474 100.333 119.568 100.212 119.638C97.6326 121.168 94.8625 122.154 91.8703 122.414C89.1423 122.651 86.5383 122.203 84.1823 120.694C82.5778 119.666 81.4543 118.214 80.5144 116.59C79.3568 114.569 78.6559 112.319 78.461 109.998C78.0675 105.766 78.9661 101.826 81.1567 98.1783C82.6844 95.6425 84.9648 94.2649 87.8192 93.79C90.4431 93.3286 93.1458 93.7784 95.4787 95.0647C96.7857 95.7727 97.6958 96.8875 98.446 98.1374C99.438 99.7854 99.9601 101.602 100.211 103.484C100.414 105.002 100.478 106.538 100.6 108.072C100.615 108.23 100.604 108.393 100.604 108.624ZM94.1557 103.807C93.8469 102.392 93.6361 100.946 92.7098 99.7469C92.2453 99.151 91.5928 98.7297 90.8585 98.5516C88.9055 98.0345 86.9426 98.9347 86.1031 100.784C85.803 101.442 85.6269 102.157 85.4087 102.851C85.3107 103.164 85.2475 103.49 85.1694 103.807C85.6939 103.946 93.6187 103.952 94.1581 103.81L94.1557 103.807Z" fill="#E20010"/>
<path d="M65.7058 87.0121L72.0534 86.03V93.8259C73.462 93.9102 74.8037 93.8185 76.1528 93.9636V98.7661C74.7888 98.7884 73.4533 98.7475 72.0608 98.8318V99.5063C72.0492 104.129 72.0393 108.752 72.0311 113.376C72.0311 114.104 72.0893 114.833 72.1551 115.558C72.2592 116.674 72.878 117.382 73.9593 117.654C74.5557 117.805 75.1683 117.891 75.7734 118.006L76.381 118.13V122.206C76.3127 122.24 76.2401 122.264 76.1652 122.278C74.3635 122.358 72.5692 122.311 70.827 121.782C69.1257 121.268 67.7072 120.338 66.7449 118.806C66.1981 117.938 65.9203 116.962 65.8001 115.954C65.7273 115.322 65.6917 114.687 65.6934 114.052C65.6934 105.272 65.6984 96.494 65.7083 87.7164L65.7058 87.0121Z" fill="#E20010"/>
<path d="M104.093 87.017L110.231 85.9531V86.8C110.231 94.7732 110.234 102.746 110.241 110.72C110.241 112.179 110.253 113.639 110.264 115.099C110.274 116.54 110.8 117.274 112.176 117.703C112.644 117.833 113.119 117.935 113.599 118.008C113.891 118.063 114.188 118.089 114.544 118.132V122.296C114.51 122.324 114.471 122.343 114.429 122.352C112.686 122.423 110.95 122.394 109.255 121.898C108.228 121.603 107.271 121.101 106.444 120.425C104.903 119.164 104.275 117.474 104.114 115.568C104.067 115.01 104.073 114.446 104.074 113.885C104.074 105.163 104.08 96.4419 104.093 87.7214V87.017Z" fill="#E20010"/>
<path d="M53.3656 121.928H47.1656C47.1581 121.669 47.1457 121.432 47.1445 121.198C47.1379 117.473 47.1325 113.748 47.1284 110.023C47.1209 107.047 47.1023 104.071 47.1036 101.095C47.1055 100.555 47.147 100.016 47.2276 99.4828C47.3193 98.874 47.638 98.3668 48.0807 97.939C50.5161 95.5682 53.4338 94.1471 56.7607 93.5345C58.8457 93.1522 60.9825 93.1493 63.0686 93.5259C63.1789 93.5457 63.2893 93.5705 63.3972 93.5978C63.4505 93.6114 63.5013 93.6375 63.6043 93.6772C62.8999 95.4677 62.0419 97.1789 61.2334 98.8703C60.2674 98.8703 59.3523 98.8418 58.4397 98.8765C56.8636 98.9288 55.3164 99.3142 53.9 100.007C53.4983 100.205 53.3482 100.45 53.3495 100.913C53.3668 107.691 53.3709 114.47 53.3619 121.249L53.3656 121.928Z" fill="#E20010"/>
<path d="M42.5928 94.0886C42.6585 103.379 42.5866 112.614 42.6461 121.907H36.5788C36.5639 121.682 36.5342 121.448 36.5342 121.214C36.5342 115.373 36.5342 109.532 36.5342 103.69C36.5342 101.013 36.5565 98.3356 36.5677 95.6585C36.5677 95.4551 36.5677 95.2517 36.5677 94.9963L42.5928 94.0886Z" fill="#E20010"/>
<path d="M39.3062 91.3545C36.3438 91.347 34.4888 88.3983 35.7176 85.6145C36.4728 83.907 37.7698 83.2585 39.641 83.2697C42.1482 83.2908 44.007 85.7844 43.4093 88.221C42.9319 90.1678 41.3695 91.3594 39.3062 91.3545Z" fill="#E20010"/>
</svg>
