<svg width="125" height="124" viewBox="0 0 125 124" fill="none" xmlns="http://www.w3.org/2000/svg">
<g clip-path="url(#clip0_1_242)">
<path d="M62.5394 122.534C96.5704 122.534 124.158 94.9469 124.158 60.9159C124.158 26.8849 96.5704 -0.702637 62.5394 -0.702637C28.5085 -0.702637 0.920898 26.8849 0.920898 60.9159C0.920898 94.9469 28.5085 122.534 62.5394 122.534Z" fill="#50B651"/>
<path opacity="0.663" fill-rule="evenodd" clip-rule="evenodd" d="M123.97 60.7424C123.97 94.8804 96.2965 122.554 62.1663 122.554C28.036 122.554 0.354492 94.8804 0.354492 60.7424C0.354492 45.6411 0.777767 43.3959 6.722 34.7985C6.722 34.7985 6.41528 44.5093 13.5358 50.2879C17.9633 53.878 22.584 51.2862 31.0418 47.3909C40.1913 43.1735 47.6293 40.4529 53.4324 41.1706C62.1739 42.2533 89.1177 58.4344 103.179 55.2123C114.413 52.6435 113.227 26.1582 113.227 26.1582C125.496 38.1387 123.97 46.2361 123.97 60.7424Z" fill="url(#paint0_linear_1_242)"/>
<path opacity="0.586" fill-rule="evenodd" clip-rule="evenodd" d="M88.6904 106.145C111.045 85.117 114.761 61.0272 99.8382 33.8753C99.9138 33.9305 100.837 30.7447 102.608 24.3179C110.55 33.9356 114.773 45.8067 115.277 59.9311C115.273 78.226 106.411 93.6305 88.6904 106.145Z" fill="url(#paint1_linear_1_242)"/>
<path opacity="0.744" fill-rule="evenodd" clip-rule="evenodd" d="M78.0863 24.445C67.2959 18.4731 54.9166 6.46045 56.5622 3.93768C58.2077 1.41491 79.5662 1.84891 90.3581 7.82075C101.15 13.7926 110.335 31.7066 108.691 34.2294C107.047 36.7521 88.8767 30.4168 78.0863 24.445Z" fill="url(#paint2_radial_1_242)"/>
<path fill-rule="evenodd" clip-rule="evenodd" d="M87.486 76.0907C78.5343 76.0907 71.2773 68.6266 71.2773 59.4204C71.2773 50.2142 78.5343 42.7517 87.486 42.7517C96.4376 42.7517 103.696 50.2142 103.696 59.4204C103.696 68.6266 96.4391 76.0907 87.486 76.0907ZM87.601 70.8028C93.1879 70.8028 97.7228 65.7066 97.7228 59.4204C97.7228 53.1342 93.1879 48.0426 87.601 48.0426C82.0141 48.0426 77.4792 53.1388 77.4792 59.4235C77.4792 65.7082 82.0141 70.8028 87.601 70.8028Z" fill="white"/>
<path fill-rule="evenodd" clip-rule="evenodd" d="M54.043 29.3298H65.7229V75.9053H59.3109V34.4383H54.043V29.3298Z" fill="white"/>
<path fill-rule="evenodd" clip-rule="evenodd" d="M45.3386 43.2256H51.4009V82.1208C51.4009 85.665 47.6727 89.3563 44.0396 90.9452C42.322 91.6956 39.1525 92.1414 34.5313 92.2825V88.4132C39.0513 87.9091 42.1022 86.9036 43.6838 85.3966C44.5965 84.1283 45.1669 82.6462 45.3401 81.0933V69.6665C43.7196 73.1048 41.6789 75.3842 39.218 76.5048C36.6599 77.885 31.4533 77.658 29.3278 76.5048C27.2022 75.3515 24.0844 72.315 22.6551 67.7924C22.2594 66.544 21.2748 63.1471 21.3776 59.5478C21.4696 56.1202 22.6045 52.4932 23.5476 51.0025C25.1671 48.4568 27.7206 45.2684 31.5883 43.9357C33.4777 43.2844 36.9794 43.0503 42.0935 43.2333V47.0811C38.2932 46.8245 35.9223 46.9528 34.9806 47.466C33.5682 48.2328 30.3798 49.1791 29.3278 56.1278C28.2757 63.0766 29.3584 68.7632 32.694 70.5437C33.8366 71.1571 35.8578 71.8825 37.7258 71.243C41.3144 70.0161 44.6914 65.6408 44.949 62.6763C45.2087 59.6684 45.3386 53.1848 45.3386 43.2256Z" fill="white"/>
<path fill-rule="evenodd" clip-rule="evenodd" d="M122.033 73.1141C116.308 100.681 91.8812 121.393 62.6186 121.393C29.1048 121.393 1.93555 94.2241 1.93555 60.7103C1.93555 39.8902 12.4208 21.5192 28.3978 10.5923C15.4159 21.3582 7.14979 37.622 7.14979 55.809C7.14979 88.2492 33.448 114.546 65.8867 114.546C92.3045 114.546 114.646 97.1073 122.033 73.1141Z" fill="url(#paint3_radial_1_242)"/>
<path fill-rule="evenodd" clip-rule="evenodd" d="M62.619 -11.1543C22.9294 -11.1543 -9.24707 21.0206 -9.24707 60.7102C-9.24707 100.4 22.9294 132.576 62.619 132.576C102.309 132.576 134.485 100.4 134.485 60.7102C134.485 21.0206 102.309 -11.1543 62.619 -11.1543ZM62.619 121.395C29.1052 121.395 1.93594 94.2255 1.93594 60.7117C1.93594 39.8916 12.4212 21.5206 28.3982 10.5937C38.4744 3.69259 50.4061 0.00839901 62.619 0.0271845C96.1328 0.0271845 123.302 27.1949 123.302 60.7102C123.304 64.8773 122.879 69.0336 122.034 73.114C116.309 100.68 91.8816 121.393 62.619 121.393V121.395Z" fill="white"/>
</g>
<defs>
<linearGradient id="paint0_linear_1_242" x1="59.7784" y1="34.5991" x2="67.701" y2="106.146" gradientUnits="userSpaceOnUse">
<stop stop-color="#123214"/>
<stop offset="0.46" stop-color="#3E7C37"/>
<stop offset="0.91" stop-color="#5FBB46"/>
</linearGradient>
<linearGradient id="paint1_linear_1_242" x1="105.549" y1="29.9482" x2="105.549" y2="87.8039" gradientUnits="userSpaceOnUse">
<stop stop-color="white" stop-opacity="0"/>
<stop offset="0.64" stop-color="white" stop-opacity="0.43"/>
<stop offset="1" stop-color="white" stop-opacity="0.42"/>
</linearGradient>
<radialGradient id="paint2_radial_1_242" cx="0" cy="0" r="1" gradientUnits="userSpaceOnUse" gradientTransform="translate(83.9397 19.4889) rotate(26.7606) scale(30.4486 12.6813)">
<stop offset="0.13" stop-color="white"/>
<stop offset="0.29" stop-color="white" stop-opacity="0.69"/>
<stop offset="0.45" stop-color="white" stop-opacity="0.4"/>
<stop offset="0.59" stop-color="white" stop-opacity="0.18"/>
<stop offset="0.69" stop-color="white" stop-opacity="0.05"/>
<stop offset="0.74" stop-color="white" stop-opacity="0"/>
</radialGradient>
<radialGradient id="paint3_radial_1_242" cx="0" cy="0" r="1" gradientUnits="userSpaceOnUse" gradientTransform="translate(73.0243 46.7288) rotate(39.84) scale(68.2345 74.3756)">
<stop offset="0.86" stop-opacity="0"/>
<stop offset="0.98" stop-opacity="0.47"/>
<stop offset="1"/>
</radialGradient>
<clipPath id="clip0_1_242">
<rect width="124" height="124" fill="white" transform="translate(0.246094)"/>
</clipPath>
</defs>
</svg>
